<svg width="122" height="123" viewBox="0 0 122 123" fill="none" xmlns="http://www.w3.org/2000/svg">
<g id="Butom">
<g id="Ellipse 295" filter="url(#filter0_di_531_751)">
<path d="M117.795 57.7205C117.795 89.0827 92.3713 114.507 61.009 114.507C29.6468 114.507 4.22266 89.0827 4.22266 57.7205C4.22266 26.3582 29.6468 0.934082 61.009 0.934082C92.3713 0.934082 117.795 26.3582 117.795 57.7205Z" fill="#16326D"/>
</g>
<g id="GIRAR" filter="url(#filter1_d_531_751)">
<path id="Vector" d="M84.3438 66.1092V48.6843H91.8862C93.4462 48.6843 94.7904 48.9416 95.9188 49.456C97.0473 49.9539 97.9186 50.6757 98.5326 51.6217C99.1466 52.5676 99.4536 53.6961 99.4536 55.0071C99.4536 56.3015 99.1466 57.4217 98.5326 58.3676C97.9186 59.2969 97.0473 60.0105 95.9188 60.5083C94.7904 61.0062 93.4462 61.2551 91.8862 61.2551H86.5841L88.3764 59.4877V66.1092H84.3438ZM95.421 66.1092L91.0648 59.7865H95.3712L99.7772 66.1092H95.421ZM88.3764 59.9358L86.5841 58.044H91.6622C92.9068 58.044 93.8362 57.7784 94.4502 57.2474C95.0642 56.6998 95.3712 55.953 95.3712 55.0071C95.3712 54.0445 95.0642 53.2978 94.4502 52.7667C93.8362 52.2357 92.9068 51.9702 91.6622 51.9702H86.5841L88.3764 50.0534V59.9358Z" fill="white"/>
<path id="Vector_2" d="M62.9961 66.1092L70.7626 48.6843H74.7454L82.5368 66.1092H78.3051L71.9326 50.7255H73.5257L67.1283 66.1092H62.9961ZM66.8793 62.3753L67.9497 59.3135H76.9111L78.0064 62.3753H66.8793Z" fill="white"/>
<path id="Vector_3" d="M46.9805 66.1092V48.6843H54.5229C56.0829 48.6843 57.4271 48.9416 58.5556 49.456C59.684 49.9539 60.5553 50.6757 61.1693 51.6217C61.7833 52.5676 62.0903 53.6961 62.0903 55.0071C62.0903 56.3015 61.7833 57.4217 61.1693 58.3676C60.5553 59.2969 59.684 60.0105 58.5556 60.5083C57.4271 61.0062 56.0829 61.2551 54.5229 61.2551H49.2208L51.0131 59.4877V66.1092H46.9805ZM58.0577 66.1092L53.7015 59.7865H58.0079L62.4139 66.1092H58.0577ZM51.0131 59.9358L49.2208 58.044H54.2989C55.5435 58.044 56.4729 57.7784 57.0869 57.2474C57.7009 56.6998 58.0079 55.953 58.0079 55.0071C58.0079 54.0445 57.7009 53.2978 57.0869 52.7667C56.4729 52.2357 55.5435 51.9702 54.2989 51.9702H49.2208L51.0131 50.0534V59.9358Z" fill="white"/>
<path id="Vector_4" d="M38.8125 66.1092V48.6843H42.8451V66.1092H38.8125Z" fill="white"/>
<path id="Vector_5" d="M28.0246 66.408C26.6472 66.408 25.3777 66.1923 24.216 65.7608C23.071 65.3128 22.067 64.6821 21.204 63.869C20.3577 63.0558 19.6939 62.1016 19.2126 61.0063C18.748 59.911 18.5156 58.7079 18.5156 57.3969C18.5156 56.0859 18.748 54.8827 19.2126 53.7875C19.6939 52.6922 20.366 51.738 21.2289 50.9248C22.0919 50.1116 23.1042 49.4893 24.2658 49.0578C25.4275 48.6098 26.7053 48.3857 28.0993 48.3857C29.6426 48.3857 31.0283 48.643 32.2564 49.1574C33.501 49.6719 34.5465 50.4186 35.3929 51.3978L32.804 53.7875C32.1734 53.1236 31.4847 52.6341 30.7379 52.3188C29.9911 51.9869 29.178 51.8209 28.2984 51.8209C27.4521 51.8209 26.6804 51.9537 25.9834 52.2192C25.2864 52.4847 24.6807 52.8664 24.1663 53.3643C23.6684 53.8621 23.2784 54.4513 22.9963 55.1317C22.7308 55.8121 22.598 56.5671 22.598 57.3969C22.598 58.21 22.7308 58.9568 22.9963 59.6372C23.2784 60.3176 23.6684 60.9151 24.1663 61.4295C24.6807 61.9274 25.2781 62.309 25.9585 62.5746C26.6555 62.8401 27.4189 62.9728 28.2487 62.9728C29.0452 62.9728 29.8169 62.8484 30.5637 62.5995C31.3271 62.3339 32.0655 61.8942 32.7791 61.2801L35.0693 64.1926C34.1233 64.9062 33.0198 65.4538 31.7585 65.8355C30.5139 66.2172 29.2693 66.408 28.0246 66.408ZM31.3851 63.6698V57.1231H35.0693V64.1926L31.3851 63.6698Z" fill="white"/>
</g>
</g>
<defs>
<filter id="filter0_di_531_751" x="0.222656" y="0.934082" width="121.574" height="121.573" filterUnits="userSpaceOnUse" color-interpolation-filters="sRGB">
<feFlood flood-opacity="0" result="BackgroundImageFix"/>
<feColorMatrix in="SourceAlpha" type="matrix" values="0 0 0 0 0 0 0 0 0 0 0 0 0 0 0 0 0 0 127 0" result="hardAlpha"/>
<feOffset dy="4"/>
<feGaussianBlur stdDeviation="2"/>
<feComposite in2="hardAlpha" operator="out"/>
<feColorMatrix type="matrix" values="0 0 0 0 0 0 0 0 0 0 0 0 0 0 0 0 0 0 0.25 0"/>
<feBlend mode="normal" in2="BackgroundImageFix" result="effect1_dropShadow_531_751"/>
<feBlend mode="normal" in="SourceGraphic" in2="effect1_dropShadow_531_751" result="shape"/>
<feColorMatrix in="SourceAlpha" type="matrix" values="0 0 0 0 0 0 0 0 0 0 0 0 0 0 0 0 0 0 127 0" result="hardAlpha"/>
<feOffset dy="4"/>
<feGaussianBlur stdDeviation="2"/>
<feComposite in2="hardAlpha" operator="arithmetic" k2="-1" k3="1"/>
<feColorMatrix type="matrix" values="0 0 0 0 0 0 0 0 0 0 0 0 0 0 0 0 0 0 0.25 0"/>
<feBlend mode="normal" in2="shape" result="effect2_innerShadow_531_751"/>
</filter>
<filter id="filter1_d_531_751" x="14.5156" y="48.3857" width="89.2617" height="26.0222" filterUnits="userSpaceOnUse" color-interpolation-filters="sRGB">
<feFlood flood-opacity="0" result="BackgroundImageFix"/>
<feColorMatrix in="SourceAlpha" type="matrix" values="0 0 0 0 0 0 0 0 0 0 0 0 0 0 0 0 0 0 127 0" result="hardAlpha"/>
<feOffset dy="4"/>
<feGaussianBlur stdDeviation="2"/>
<feComposite in2="hardAlpha" operator="out"/>
<feColorMatrix type="matrix" values="0 0 0 0 0 0 0 0 0 0 0 0 0 0 0 0 0 0 0.79 0"/>
<feBlend mode="normal" in2="BackgroundImageFix" result="effect1_dropShadow_531_751"/>
<feBlend mode="normal" in="SourceGraphic" in2="effect1_dropShadow_531_751" result="shape"/>
</filter>
</defs>
</svg>
